<svg xmlns="http://www.w3.org/2000/svg" xmlns:xlink="http://www.w3.org/1999/xlink" id="svg4170" version="1.1" viewBox="0 0 63.387 56.5"><defs id="defs4172"><filter id="filter3940" color-interpolation-filters="sRGB"><feGaussianBlur id="feGaussianBlur3942" stdDeviation=".516"/></filter><filter id="filter3914" color-interpolation-filters="sRGB"><feGaussianBlur id="feGaussianBlur3916" stdDeviation=".481"/></filter><filter id="filter3722" color-interpolation-filters="sRGB"><feGaussianBlur id="feGaussianBlur3724" stdDeviation=".262"/></filter><linearGradient id="linearGradient4154" x1="117.94" x2="114.19" y1="327.21" y2="310.79" gradientUnits="userSpaceOnUse"><stop id="stop3672" offset="0" style="stop-color:#000"/><stop id="stop3674" offset="1" style="stop-color:#000;stop-opacity:0"/></linearGradient><filter id="filter3524" color-interpolation-filters="sRGB"><feGaussianBlur id="feGaussianBlur3526" stdDeviation=".157"/></filter><linearGradient id="linearGradient4152" x1="146.32" x2="143.65" y1="275.27" y2="288.53" gradientUnits="userSpaceOnUse"><stop id="stop3482" offset="0" style="stop-color:#000"/><stop id="stop3484" offset="1" style="stop-color:#000;stop-opacity:0"/></linearGradient><linearGradient id="linearGradient4150" x1="157.3" x2="157.41" y1="287.77" y2="294.04" gradientUnits="userSpaceOnUse"><stop id="stop3464" offset="0" style="stop-color:#06c"/><stop id="stop3466" offset="1" style="stop-color:#002448"/></linearGradient><filter id="filter3434" color-interpolation-filters="sRGB"><feGaussianBlur id="feGaussianBlur3436" stdDeviation=".253"/></filter><linearGradient id="linearGradient4148" x1="148.55" x2="147.4" y1="296.68" y2="291.79" gradientUnits="userSpaceOnUse"><stop id="stop3456" offset="0" style="stop-color:#000"/><stop id="stop3458" offset="1" style="stop-color:#fff;stop-opacity:0"/></linearGradient><linearGradient id="linearGradient4146" x1="147.85" x2="147.58" y1="278.36" y2="286.57" gradientUnits="userSpaceOnUse"><stop id="stop3472" offset="0" style="stop-color:#595959"/><stop id="stop3474" offset="1" style="stop-color:#f3f3f3"/></linearGradient><linearGradient id="linearGradient4144" x1="140.3" x2="153.78" y1="257.48" y2="262.21" gradientUnits="userSpaceOnUse" xlink:href="#linearGradient3332"/><filter id="filter3386" color-interpolation-filters="sRGB"><feGaussianBlur id="feGaussianBlur3388" stdDeviation=".383"/></filter><linearGradient id="linearGradient3332"><stop id="stop3334" offset="0" style="stop-color:#000"/><stop id="stop3336" offset="1" style="stop-color:#000;stop-opacity:0"/></linearGradient><linearGradient id="linearGradient4142" x1="147.85" x2="161.35" y1="269.36" y2="277.14" gradientUnits="userSpaceOnUse" xlink:href="#linearGradient3332"/><filter id="filter3648" width="1.434" height="1.048" x="-.217" y="-.024" color-interpolation-filters="sRGB"><feGaussianBlur id="feGaussianBlur3650" stdDeviation=".305"/></filter><filter id="filter3836" width="1.23" height="1.126" x="-.115" y="-.063" color-interpolation-filters="sRGB"><feGaussianBlur id="feGaussianBlur3838" stdDeviation=".258"/></filter><linearGradient id="linearGradient4140" x1="119.87" x2="121.78" y1="301.32" y2="307.17" gradientUnits="userSpaceOnUse"><stop id="stop3730" offset="0" style="stop-color:#000"/><stop id="stop3732" offset="1" style="stop-color:#000;stop-opacity:0"/></linearGradient><linearGradient id="linearGradient4138" x1="109.9" x2="124.11" y1="255.28" y2="284.66" gradientUnits="userSpaceOnUse"><stop id="stop3654" offset="0" style="stop-color:#000"/><stop id="stop3656" offset="1" style="stop-color:#fff"/></linearGradient><linearGradient id="linearGradient4136" x1="96.582" x2="96.582" y1="284.15" y2="292.58" gradientUnits="userSpaceOnUse"><stop id="stop3662" offset="0" style="stop-color:#070707"/><stop id="stop3664" offset="1" style="stop-color:#fff;stop-opacity:0"/></linearGradient><filter id="filter4113" color-interpolation-filters="sRGB"><feGaussianBlur id="feGaussianBlur4115" stdDeviation=".862"/></filter></defs><g id="layer1" transform="translate(-288.31 -301.15)"><path id="path2383" d="m320 304.11c-16.64 0-30.14 9.93-30.14 22.17s13.5 22.17 30.14 22.17c3.51 0 6.87-0.44 10-1.25l10.1 8.9-4.4-10.9c8.66-3.89 14.44-10.91 14.44-18.92 0-12.24-13.5-22.17-30.14-22.17z" style="stroke:#00b3ff;stroke-width:3.107;fill:#fff"/><g id="g4117" transform="matrix(1.1772,0,0,1.1772,168.5,114.04)"><path id="path3983" d="m141.18 161.02c-0.45 0.01-0.71 0.09-0.71 0.09-4.8 1.23-6.05 8.54-6.66 9.06s-3.58 2.56-7.53 4.63c-3.96 2.06-12.7 4.63-15.38 6.06-0.18 0.37-0.32 0.74-0.43 1.09l-1.85 0.75s-1.67 2.07-0.69 5.38c0.75 2.52 3.1 3.34 3.1 3.34l1.81-0.31c0.64 0.64 1.53 1.12 1.53 1.12l5.81-1.28s-0.23 1.44-0.28 2c-0.04 0.57 0.82 0.77 1.03 2.82 0.22 2.04-0.34 6.77-0.18 7.71 0.16 0.95 1.65 0.85 1.65 0.85h5s1-1.55 1.85-2.31c0.4-0.88 0.28-2.78 0.18-3.04-0.25-0.65-1.6-1.25-2.28-1.96v-1.22c0.28-0.64 0.74-1.31 0.6-1.69-0.07-0.19-0.32-0.52-0.6-0.94l-0.03-3.81c3.12 0.31 9.83 1.52 12.44 3.84 2.84 2.53 5.8 3.9 6.66 4.03 0.85 0.14 8.37-1.29 5.06-19.9-2.69-15.12-8.14-16.37-10.1-16.31z" style="opacity:.51812;filter:url(#filter4113);fill-rule:evenodd;fill:#000"/><g id="g3944" transform="matrix(.63379 -.1081 .1081 .63379 14.271 11.861)"><path id="path3268" d="m102.9 282.23-6.124 1.36s-3.091 2.74-2.452 8.07c0.489 4.07 3.886 5.91 3.886 5.91h4.47l0.22-15.34z" style="fill-rule:evenodd;stroke:#333;stroke-width:1px;fill:url(#linearGradient4136)"/><path id="path3262" d="m151.26 258.8s12.14-1.71 12.35 27.69c0.22 29.4-11.71 29.61-12.99 29.19-1.28-0.43-5.47-3.26-9.16-7.88-3.41-4.27-13.42-7.89-18.11-9.16-3.62 1.91-0.43 6.39-0.21 7.45 0.21 1.07-2.56 2.98-1.71 4.26s2.77 2.55 2.98 3.62c0.09 0.42-0.21 3.37-1.06 4.61-1.5 0.95-3.41 3.06-3.41 3.06l-7.67-1.28s-2.36-0.24-2.36-1.73 2.11-8.59 2.33-11.78c0.21-3.2-1.03-3.74-0.82-4.59 0.21-0.86 0.91-2.99 0.91-2.99l-9.22 0.43s-1.92-1.49-2.56-2.98c-0.635-1.49-4.683-8.52 0.22-15.34 4.47-1.49 18.53-3.2 25.14-5.33 6.6-2.13 11.71-4.47 12.78-5.11 1.06-0.64 4.9-11.5 12.57-12.14z" style="fill-rule:evenodd;stroke:#333;stroke-width:1px;fill:url(#linearGradient4138)"/><path id="path3726" d="m122.76 298.56s-4.14 1.38-4.67 2.69l-0.52 1.32s0.59 2.76 1.25 3.61c0.66 0.86 0.85 1.58 0.92 2.11 0.06 0.52 3.22-1.84 3.22-1.84s-1.81-2.97-1.79-4.84c0.02-1.57 1.59-2.92 1.59-3.05z" style="filter:url(#filter3836);fill-rule:evenodd;fill:url(#linearGradient4140)"/><path id="path3264" d="m123.43 298.42s-5.83 1.92-5.83 4.26c0 2.35 2.34 4.69 2.34 6.18s-1.92 3.2-1.06 4.26c0.85 1.07 2.62 2.39 2.4 3.67l-1.62 4.64" style="stroke:#333;stroke-width:.7;fill:none"/><path id="path3275" d="m139.5 271.93c-2.1 4.31-3.38 9.63-3.38 15.41 0 5.77 1.25 11.09 3.35 15.4-1.19-4.62-1.85-9.86-1.85-15.4 0-5.56 0.69-10.78 1.88-15.41z" style="filter:url(#filter3648);fill:#000"/><path id="path3284" d="m152.89 262.19c-5.57 0-10.95 10.9-10.95 24.88 0 5.79 0.79 11.11 2.09 15.37-0.32-2.05-0.51-4.25-0.51-6.53 0-11.45 5.27-20.28 10.67-20.28 3.87 0 7.2 4.75 8.79 11.65-0.2-15.89-4.56-25.09-10.09-25.09z" style="opacity:.67391;filter:url(#filter3386);fill:url(#linearGradient4142)"/><path id="path3390" d="m152.89 262.19c-5.57 0-13.31 10.04-13.31 24.02 0 5.79 0.8 11.11 2.1 15.37-0.32-2.05 4.43-4.33 4.43-6.6 0-11.45-0.04-27.24 7.32-28.17 6.44-0.82 9.89 7.62 11.48 14.52-0.19-15.89-6.49-19.14-12.02-19.14z" transform="matrix(.72656 .018161 .01835 -.71905 36.279 497.65)" style="filter:url(#filter3386);fill:url(#linearGradient4144)"/><path id="path3280" d="m142.59 279.39 13.78 3.91 0.43 9.58-13.85 5.76c-0.88-4.53-1.75-12.76-0.36-19.25z" style="fill-rule:evenodd;fill:url(#linearGradient4146)"/><path id="path3290" d="m142.78 281.41 11.78 3.75 2.24 7.29-13.85 5.75c-0.76-3.85-1.37-11.28-0.17-16.79z" style="filter:url(#filter3434);fill-rule:evenodd;fill:url(#linearGradient4148)"/><path id="path3282" d="m158.93 287.77c0 2.8238-1.0969 5.1129-2.4499 5.1129-1.3531 0-2.4499-2.2891-2.4499-5.1129s1.0969-5.1129 2.4499-5.1129c1.3531 0 2.4499 2.2891 2.4499 5.1129z" transform="matrix(.85124 0 0 .89379 23.024 30.789)" style="fill:url(#linearGradient4150)"/><path id="path3270" d="m152.42 261.98c-6.29 0-11.4 11.4-11.4 25.46 0 14.05 5.11 25.46 11.4 25.46 2.44 0 4.71-1.73 6.56-4.65-1.67 2.39-3.64 3.8-5.76 3.8-5.98 0-10.83-11.03-10.83-24.61s4.85-24.59 10.83-24.59c2.12 0 4.09 1.42 5.76 3.81-1.85-2.93-4.12-4.68-6.56-4.68z" style="fill:#1a1a1a"/><path id="path3478" d="m142.54 279.71 6.77 1.88s-3.33 2-2.66 7.11 2.55 6.11 2.55 6.11l-6.99 2.55s-0.45-5.22-0.33-7.77c0.11-2.56 0.66-9.66 0.66-9.88z" style="filter:url(#filter3524);fill-rule:evenodd;fill:url(#linearGradient4152)"/><path id="path3668" d="m112.32 301.34s0.85 2.72 0.85 4.59c0 1.88-2.38 11.58-2.38 12.26s0.62 1.07 0.62 1.07l7.73 1.31s0.85-2.31 1.01-3.12c0.17-0.81 0.34-0.87 0.26-1.26-0.14-0.75-0.84-1.42-1.85-2.21-0.86-0.66-0.9-1.91-0.39-2.59s0.62-3.76 0.62-3.76-2.04-2.38-2.04-3.74-0.85-2.38-0.17-2.89-3.92 0.34-4.26 0.34z" style="filter:url(#filter3722);fill-rule:evenodd;fill:url(#linearGradient4154)"/><path id="path3840" d="m124.1 297.47c5 1.79 10 3.24 15 6.8 0 0-3.2-5.55-3.47-7.77-0.28-2.22-0.98-6.25-0.7-7.08 0.28-0.84-1.01 6.97-2.78 7.77-3.05 1.39-7.77 0.42-8.05 0.28z" style="opacity:.20014;filter:url(#filter3914);fill-rule:evenodd;fill:#000"/><path id="path3918" d="m100.5 284.42s0.7-2.22 1.39-2.5c0.7-0.28 14.99-2.77 15.83-2.91 0.83-0.14 8.33-1.81 9.3-2.09 0.97-0.27 7.91-2.77 8.61-3.19 0.69-0.42 3.88-2.08 3.88-2.08s-2.22 9.99-2.91 13.33c-0.88-3.5-0.97-5.7-3.75-6.39-5.07-1.27-11.13 0.8-15.55 1.53-4.41 0.73-14.57 2.77-14.57 2.77s-2.36 4.72-2.5 6.81c-0.14 2.08 0.14-5.28 0.27-5.28z" style="opacity:.4529;filter:url(#filter3940);fill-rule:evenodd;fill:#000"/></g></g></g><metadata id="metadata72"/></svg>